<?xml version="1.0" encoding="utf-8"?>
<!-- Generator: Adobe Illustrator 23.0.0, SVG Export Plug-In . SVG Version: 6.00 Build 0)  -->
<svg version="1.1" xmlns="http://www.w3.org/2000/svg" xmlns:xlink="http://www.w3.org/1999/xlink" x="0px" y="0px"
	 viewBox="0 0 800 800" style="enable-background:new 0 0 800 800;" xml:space="preserve">
<style type="text/css">
	.st0{fill:#DC7575;}
</style>
<g id="图层_2">
</g>
<g id="图层_1">
	<g>
		<path class="st0" d="M494.8,437.9c0,0,8.4,87.7,16.6,103c8.2,15.3,43.3,45,43.3,45s6.2-40.2,0-59.9
			C548.5,506.3,494.8,437.9,494.8,437.9z"/>
		<path class="st0" d="M557.5,21.2c0,0-33.1,23.8-42.8,42c-9.7,18.2-21,104.5-21,104.5s56.8-67.4,61.9-84S557.5,21.2,557.5,21.2z"/>
		<path class="st0" d="M636.6,0c-12,37.3-28.9,89.2-39.8,125.3c36.4,46.4,80.1,104.2,91.9,190.6c18.4,0,63.4,2.5,63.4,14.1
			c0.1,11.5-62.7,10.7-62.7,10.7s0.6,17.1-4.3,61.6c-16.8,151.3-99.9,194.9-99.9,194.9l-7.1,62.9
			c121.6-59.3,197.3-191.5,197.4-299.6C775.7,211.5,642.4,130.4,636.6,0z"/>
		<path class="st0" d="M585.7,571.1c91.3-83,82.4-230.7,82.4-230.7s-118.1,0-118.7-10.4s99-13.5,118.9-14.3
			c-3.9-102.7-83-169.8-83-169.8s-18.8,56.4-73.4,55.8c-9.1,21.2-15.1,94.4-77,77.2c-12.2-10.4-7.1-22.4,7-24.3
			c13.6-1.9,22.7-27.8,22.7-27.8s-28.4-10.4-28.2-26.2c0.2-15.9-1-28.8-1-28.8s12.3,1,19.4-4.9C444.7,140.6,400,16.1,400,16.1
			s-44.7,124.6-54.8,150.8c7,5.9,19.4,4.9,19.4,4.9s-1.2,12.9-1,28.8c0.2,15.9-28.2,26.2-28.2,26.2s9.2,25.9,22.7,27.8
			c14.1,2,19.2,14,7,24.3c-61.9,17.2-67.9-56-77-77.2c-54.6,0.6-73.4-55.8-73.4-55.8s-79.1,67.1-83,169.8
			c19.8,0.8,119.5,4,118.9,14.3s-118.7,10.4-118.7,10.4s-8.8,147.7,82.4,230.7c-2.8-54.6,4.5-101.1,15.3-124.9
			c10.8-23.8,43.9-20,53.3-32.3c9.4-12.3-7.6-60.1,49.4-61.1c47-0.8,43.1,42.9,40.5,57.9c-5.7,7-12.1,5.4-28.4,9.3
			c6,7.7,17.2,13.3,25.5,48c5.6,24.1-10,278.9-5.9,297.7c8.2,10.4,36,34.5,36,34.5s27.9-24,36-34.5c4.1-18.8-11.5-273.6-5.9-297.7
			c8.2-34.7,19.5-40.3,25.5-48c-16.3-3.9-22.7-2.4-28.4-9.3c-2.5-15-6.5-58.7,40.5-57.9c57,1,40,48.8,49.4,61.1
			c9.4,12.3,42.5,8.5,53.3,32.3C581.1,470,588.4,516.4,585.7,571.1z"/>
		<path class="st0" d="M245.3,585.9c0,0,35.1-29.8,43.3-45c8.2-15.3,16.6-103,16.6-103s-53.8,68.4-59.9,88.1
			C239.1,545.7,245.3,585.9,245.3,585.9z"/>
		<path class="st0" d="M306.3,167.6c0,0-11.2-86.3-21-104.5c-9.7-18.2-42.8-42-42.8-42s-3.3,45.9,1.9,62.4S306.3,167.6,306.3,167.6z
			"/>
		<path class="st0" d="M114.9,402.3c-4.9-44.5-4.3-61.6-4.3-61.6s-62.7,0.9-62.7-10.7c0.1-11.6,45-14.1,63.4-14.1
			c11.8-86.4,55.5-144.2,91.9-190.6c-10.9-36.1-27.8-88-39.8-125.3c-5.9,130.4-139.1,211.5-139,360.3
			c0.1,108.1,75.8,240.3,197.4,299.6l-7.1-62.9C214.7,597.1,131.7,553.5,114.9,402.3z"/>
	</g>
</g>
</svg>
